<?xml version="1.0" encoding="UTF-8"?>
<svg xmlns="http://www.w3.org/2000/svg" width="840" height="480" viewBox="0 0 840 480">
<rect x="0" y="0" width="840" height="480" fill="white"/>
<line x1="420.0" y1="440.0" x2="183.1" y2="203.1" stroke="black" stroke-width="1"/><line x1="420.0" y1="440.0" x2="651.2" y2="208.8" stroke="black" stroke-width="1"/>
<polyline points="193.7,213.7 194.1,206.1 194.5,198.3 195.0,190.1 195.5,181.6 196.6,173.8 204.3,173.7 210.6,171.9 215.0,168.0 219.4,164.0 224.0,160.0 228.4,156.0 232.9,151.8 237.4,147.8 242.0,143.7 246.5,139.5 251.2,135.3 255.7,131.2 260.4,126.8 265.2,122.5 269.9,118.2 274.8,113.8 279.6,109.4 284.6,104.8 289.6,100.2 294.6,95.6 299.8,90.9 305.0,86.1 310.3,81.2 315.8,76.2 321.2,71.2 326.7,66.1 332.5,61.0 339.4,61.1 346.3,61.1 353.2,61.0 359.9,61.1 366.8,61.1 373.5,61.1 379.6,56.6 386.1,52.1 392.9,52.0 399.7,52.0 406.5,52.0 413.2,52.0 420.0,52.0 426.8,52.0 433.5,52.0 440.3,51.8 447.1,51.8 454.0,51.9 459.8,60.9 466.6,60.8 473.3,60.8 480.1,60.8 486.9,60.8 493.7,60.7 500.7,60.7 507.0,63.1 512.7,68.3 518.2,73.3 523.6,78.4 529.1,83.2 534.3,88.1 539.5,92.8 544.7,97.4 549.7,102.0 554.7,106.5 559.6,111.0 564.5,115.4 569.4,119.8 574.1,124.1 578.8,128.3 583.5,132.6 588.1,136.7 592.7,140.9 597.3,145.0 601.8,149.1 606.3,153.1 610.8,157.1 615.3,161.2 619.7,165.2 624.1,169.1 630.1,171.1 637.7,171.1 639.6,178.4 639.7,187.2 640.0,195.6 640.1,203.9 640.3,211.8 640.6,219.4" fill="none" stroke="black" stroke-width="1" stroke-dasharray="4 4"/>
<polyline points="183.1,203.1 183.7,195.3 184.3,187.3 184.9,178.9 185.6,170.3 187.0,162.3 194.9,162.0 201.3,160.1 206.0,156.0 210.6,151.8 215.3,147.7 220.0,143.5 224.7,139.3 229.5,135.1 234.2,130.8 239.0,126.5 243.9,122.2 248.7,117.9 253.6,113.5 258.6,109.1 263.6,104.6 268.7,100.1 273.8,95.5 279.0,90.9 284.2,86.2 289.5,81.5 294.9,76.7 300.4,71.8 305.9,66.9 311.6,61.8 317.3,56.7 323.1,51.5 329.1,46.4 336.3,46.4 343.5,46.4 350.6,46.3 357.6,46.3 364.7,46.3 371.7,46.3 378.1,41.7 384.8,37.1 391.8,37.1 398.9,37.1 405.9,37.0 413.0,37.0 420.0,37.0 427.0,37.0 434.1,37.0 441.1,36.9 448.2,36.9 455.3,36.9 461.4,46.0 468.4,46.0 475.4,46.0 482.4,46.0 489.5,46.0 496.6,46.0 503.8,46.0 510.4,48.5 516.3,53.7 522.1,58.8 527.8,63.9 533.5,68.9 539.0,73.8 544.4,78.6 549.8,83.3 555.1,88.0 560.3,92.6 565.5,97.2 570.6,101.7 575.7,106.2 580.7,110.6 585.6,115.0 590.5,119.3 595.4,123.6 600.2,127.9 605.0,132.1 609.7,136.4 614.5,140.5 619.2,144.7 623.9,148.9 628.5,153.0 633.2,157.1 639.4,159.2 647.2,159.4 649.2,166.9 649.6,175.9 650.0,184.5 650.4,192.9 650.8,201.0 651.2,208.8" fill="none" stroke="black" stroke-width="2.5" stroke-linejoin="round"/>
<polyline points="352.8,507.2 354.5,508.8 356.2,510.4 357.9,511.9 359.7,513.4 361.6,514.9 363.4,516.3 365.3,517.7 367.2,519.0 369.2,520.3 371.2,521.5 373.2,522.7 375.2,523.8 377.3,524.9 379.4,525.9 381.5,526.8 383.6,527.8 385.8,528.6 388.0,529.4 390.2,530.2 392.4,530.9 394.7,531.6 396.9,532.2 399.2,532.7 401.5,533.2 403.8,533.6 406.1,534.0 408.4,534.3 410.7,534.5 413.0,534.7 415.3,534.9 417.7,535.0 420.0,535.0 422.3,535.0 424.7,534.9 427.0,534.7 429.3,534.5 431.6,534.3 433.9,534.0 436.2,533.6 438.5,533.2 440.8,532.7 443.1,532.2 445.3,531.6 447.6,530.9 449.8,530.2 452.0,529.4 454.2,528.6 456.4,527.8 458.5,526.8 460.6,525.9 462.7,524.9 464.8,523.8 466.8,522.7 468.8,521.5 470.8,520.3 472.8,519.0 474.7,517.7 476.6,516.3 478.4,514.9 480.3,513.4 482.1,511.9 483.8,510.4 485.5,508.8 487.2,507.2" fill="none" stroke="black" stroke-width="1"/>
<polygon points="483.6,376.4 420.0,312.7 356.4,376.4 420.0,440.0" fill="none" stroke="black" stroke-width="1.5"/>
<polygon points="483.64,371.36 488.64,376.36 483.64,381.36 478.64,376.36" fill="none" stroke="black" stroke-width="1.5"/>
<polygon points="420,307.72 425,312.72 420,317.72 415,312.72" fill="none" stroke="black" stroke-width="1.5"/>
<polygon points="356.36,371.36 361.36,376.36 356.36,381.36 351.36,376.36" fill="none" stroke="black" stroke-width="1.5"/>
<polygon points="420,445 415,440 417,435 423,435 425,440" fill="none" stroke="black" stroke-width="1.5"/>
<circle cx="420.0" cy="379.5" r="6" fill="none" stroke="black" stroke-width="1"/>
<text x="187.1" y="199.1" font-family="Arial,Helvetica,sans-serif" font-size="13" text-anchor="start" fill="black">335</text>
<text x="187.7" y="191.3" font-family="Arial,Helvetica,sans-serif" font-size="13" text-anchor="start" fill="black">340</text>
<text x="441.1" y="30.9" font-family="Arial,Helvetica,sans-serif" font-size="13" text-anchor="middle" fill="black">403</text>
<text x="646.8" y="197.0" font-family="Arial,Helvetica,sans-serif" font-size="13" text-anchor="end" fill="black">332</text>
<text x="647.2" y="204.8" font-family="Arial,Helvetica,sans-serif" font-size="13" text-anchor="end" fill="black">327</text>
<text x="420.0" y="22" font-family="Arial,Helvetica,sans-serif" font-size="15" font-weight="bold" text-anchor="middle" fill="black">Chase Field</text><text x="420.0" y="38" font-family="Arial,Helvetica,sans-serif" font-size="13" text-anchor="middle" fill="black">Arizona Diamondbacks</text>
</svg>
