<?xml version="1.0" encoding="UTF-8"?>
<svg xmlns="http://www.w3.org/2000/svg" width="840" height="480" viewBox="0 0 840 480">
<rect x="0" y="0" width="840" height="480" fill="white"/>
<line x1="420.0" y1="440.0" x2="186.7" y2="206.7" stroke="black" stroke-width="1"/><line x1="420.0" y1="440.0" x2="653.3" y2="206.7" stroke="black" stroke-width="1"/>
<polyline points="197.3,217.3 198.1,210.3 199.0,203.0 199.9,195.7 200.9,187.9 203.0,181.5 205.5,175.3 208.2,168.8 211.0,162.7 215.2,158.1 219.9,154.2 225.0,150.9 230.2,147.7 235.2,144.3 240.3,141.1 245.5,137.6 250.6,134.4 255.7,131.1 260.9,127.8 266.0,124.3 271.2,121.0 276.5,117.6 281.7,114.3 286.9,110.7 292.2,107.2 297.6,103.7 303.3,100.9 308.9,98.2 314.7,95.3 320.3,92.6 326.2,89.8 331.9,86.9 338.0,84.5 343.9,82.2 350.0,79.8 356.1,77.4 362.1,75.1 368.4,72.5 374.5,70.1 380.9,67.7 387.2,65.0 393.7,62.4 400.1,59.9 406.7,57.7 413.2,56.1 420.0,56.1 426.8,56.1 433.4,57.1 440.0,58.4 446.5,59.7 453.1,61.9 459.6,64.2 465.8,66.6 472.2,68.9 478.4,71.1 484.7,73.4 490.7,76.1 496.7,79.1 502.6,82.0 508.5,84.9 514.3,87.8 520.2,90.8 525.9,93.6 531.6,96.6 537.1,99.8 542.6,103.0 548.1,106.2 553.6,109.3 559.1,112.4 564.4,115.6 569.7,119.0 574.9,122.5 580.1,125.8 585.2,129.4 590.3,132.7 595.4,136.2 600.4,139.7 605.3,143.4 610.3,147.0 615.2,150.6 620.2,154.1 624.9,157.9 629.5,162.1 633.4,166.9 635.7,173.6 637.6,180.7 639.3,187.8 640.6,194.9 641.2,202.9 641.8,210.3 642.7,217.3" fill="none" stroke="black" stroke-width="1" stroke-dasharray="4 4"/>
<polyline points="186.7,206.7 187.7,199.5 188.8,192.1 189.9,184.5 191.1,176.6 193.4,170.0 196.1,163.6 198.9,157.0 202.0,150.7 206.4,146.0 211.3,141.9 216.6,138.5 222.0,135.1 227.3,131.6 232.6,128.2 238.0,124.7 243.3,121.3 248.7,117.8 254.1,114.4 259.5,110.9 264.9,107.4 270.4,103.9 275.8,100.4 281.3,96.8 286.9,93.2 292.5,89.6 298.4,86.7 304.3,83.9 310.3,81.0 316.2,78.2 322.3,75.3 328.3,72.4 334.6,69.9 340.8,67.5 347.1,65.1 353.5,62.6 359.8,60.2 366.3,57.7 372.7,55.2 379.3,52.7 385.9,50.1 392.6,47.5 399.3,44.9 406.1,42.7 413.0,41.1 420.0,41.1 427.0,41.1 433.9,42.1 440.8,43.4 447.6,44.8 454.4,47.0 461.1,49.3 467.7,51.7 474.3,54.0 480.8,56.3 487.3,58.6 493.6,61.4 499.8,64.4 506.0,67.4 512.2,70.3 518.2,73.3 524.3,76.4 530.3,79.3 536.2,82.3 542.0,85.6 547.8,88.9 553.5,92.2 559.2,95.4 564.9,98.6 570.5,101.9 576.0,105.4 581.5,109.0 586.9,112.5 592.2,116.1 597.6,119.6 602.9,123.2 608.1,126.9 613.3,130.7 618.5,134.4 623.6,138.1 628.8,141.8 633.7,145.8 638.5,150.1 642.6,155.1 645.2,161.9 647.2,169.2 649.1,176.5 650.7,183.7 651.4,191.9 652.2,199.5 653.3,206.7" fill="none" stroke="black" stroke-width="2.5" stroke-linejoin="round"/>
<polyline points="352.8,507.2 354.5,508.8 356.2,510.4 357.9,511.9 359.7,513.4 361.6,514.9 363.4,516.3 365.3,517.7 367.2,519.0 369.2,520.3 371.2,521.5 373.2,522.7 375.2,523.8 377.3,524.9 379.4,525.9 381.5,526.8 383.6,527.8 385.8,528.6 388.0,529.4 390.2,530.2 392.4,530.9 394.7,531.6 396.9,532.2 399.2,532.7 401.5,533.2 403.8,533.6 406.1,534.0 408.4,534.3 410.7,534.5 413.0,534.7 415.3,534.9 417.7,535.0 420.0,535.0 422.3,535.0 424.7,534.9 427.0,534.7 429.3,534.5 431.6,534.3 433.9,534.0 436.2,533.6 438.5,533.2 440.8,532.7 443.1,532.2 445.3,531.6 447.6,530.9 449.8,530.2 452.0,529.4 454.2,528.6 456.4,527.8 458.5,526.8 460.6,525.9 462.7,524.9 464.8,523.8 466.8,522.7 468.8,521.5 470.8,520.3 472.8,519.0 474.7,517.7 476.6,516.3 478.4,514.9 480.3,513.4 482.1,511.9 483.8,510.4 485.5,508.8 487.2,507.2" fill="none" stroke="black" stroke-width="1"/>
<polygon points="483.6,376.4 420.0,312.7 356.4,376.4 420.0,440.0" fill="none" stroke="black" stroke-width="1.5"/>
<polygon points="483.64,371.36 488.64,376.36 483.64,381.36 478.64,376.36" fill="none" stroke="black" stroke-width="1.5"/>
<polygon points="420,307.72 425,312.72 420,317.72 415,312.72" fill="none" stroke="black" stroke-width="1.5"/>
<polygon points="356.36,371.36 361.36,376.36 356.36,381.36 351.36,376.36" fill="none" stroke="black" stroke-width="1.5"/>
<polygon points="420,445 415,440 417,435 423,435 425,440" fill="none" stroke="black" stroke-width="1.5"/>
<circle cx="420.0" cy="379.5" r="6" fill="none" stroke="black" stroke-width="1"/>
<text x="190.7" y="202.7" font-family="Arial,Helvetica,sans-serif" font-size="13" text-anchor="start" fill="black">329</text>
<text x="191.7" y="195.5" font-family="Arial,Helvetica,sans-serif" font-size="13" text-anchor="start" fill="black">334</text>
<text x="413.0" y="35.1" font-family="Arial,Helvetica,sans-serif" font-size="13" text-anchor="middle" fill="black">399</text>
<text x="648.2" y="195.5" font-family="Arial,Helvetica,sans-serif" font-size="13" text-anchor="end" fill="black">334</text>
<text x="649.3" y="202.7" font-family="Arial,Helvetica,sans-serif" font-size="13" text-anchor="end" fill="black">329</text>
<text x="420.0" y="22" font-family="Arial,Helvetica,sans-serif" font-size="15" font-weight="bold" text-anchor="middle" fill="black">Dodger Stadium</text><text x="420.0" y="38" font-family="Arial,Helvetica,sans-serif" font-size="13" text-anchor="middle" fill="black">Los Angeles Dodgers</text>
</svg>
