<?xml version="1.0" encoding="UTF-8"?>
<svg xmlns="http://www.w3.org/2000/svg" width="840" height="480" viewBox="0 0 840 480">
<rect x="0" y="0" width="840" height="480" fill="white"/>
<line x1="420.0" y1="440.0" x2="182.4" y2="202.4" stroke="black" stroke-width="1"/><line x1="420.0" y1="440.0" x2="656.9" y2="203.1" stroke="black" stroke-width="1"/>
<polyline points="193.0,213.0 196.2,208.1 199.2,203.2 202.3,198.2 205.3,193.1 208.5,188.0 211.8,182.8 214.9,177.6 218.3,172.3 221.6,167.0 224.9,161.4 228.4,155.9 231.8,150.2 235.4,144.5 239.7,140.1 245.0,137.0 248.9,131.3 254.2,128.3 259.7,125.4 265.1,122.5 270.6,119.5 276.0,116.5 281.5,113.5 286.9,110.5 292.4,107.6 298.0,104.5 303.5,101.5 309.1,98.4 314.6,95.4 320.2,92.2 326.0,89.0 331.7,85.8 339.4,90.6 345.2,88.1 351.0,84.8 356.8,81.4 362.6,78.1 368.7,74.8 374.7,71.3 380.9,67.8 387.1,64.1 393.5,60.5 399.9,56.8 406.5,53.1 413.2,52.7 420.0,55.9 426.7,58.9 433.2,62.0 439.6,65.0 446.0,67.9 452.3,70.7 458.5,73.6 464.7,76.5 470.7,79.2 476.6,82.1 482.6,84.8 488.5,87.4 494.4,90.1 500.1,92.7 506.0,95.4 511.6,98.0 517.4,100.5 523.0,103.0 528.6,105.7 534.2,108.2 539.8,110.7 545.4,113.2 550.9,115.7 556.7,118.2 562.2,120.7 567.7,123.2 573.3,125.7 578.9,128.1 584.6,130.6 590.1,133.1 595.8,135.6 601.3,138.1 606.8,141.0 610.2,147.1 613.5,153.2 616.7,159.1 619.8,164.9 622.9,170.7 626.0,176.3 628.9,182.0 632.0,187.4 634.9,192.8 637.7,198.2 640.7,203.3 643.5,208.6 646.3,213.7" fill="none" stroke="black" stroke-width="1" stroke-dasharray="4 4"/>
<polyline points="182.4,202.4 185.7,197.3 188.9,192.2 192.2,187.0 195.5,181.8 198.9,176.5 202.3,171.2 205.7,165.8 209.2,160.3 212.8,154.8 216.3,149.1 220.0,143.4 223.6,137.6 227.4,131.8 232.0,127.2 237.5,124.0 241.6,118.1 247.2,115.1 252.9,112.0 258.5,109.0 264.2,105.9 269.9,102.8 275.6,99.7 281.3,96.6 287.0,93.5 292.8,90.4 298.6,87.3 304.4,84.1 310.2,81.0 316.1,77.8 322.1,74.5 328.1,71.3 336.0,76.0 342.1,73.4 348.1,70.1 354.2,66.7 360.3,63.3 366.6,59.9 372.9,56.4 379.3,52.8 385.8,49.2 392.4,45.6 399.1,41.8 406.0,38.1 413.0,37.7 420.0,40.9 426.9,43.9 433.7,47.0 440.4,50.0 447.1,52.9 453.6,55.8 460.1,58.7 466.5,61.6 472.8,64.4 479.0,67.2 485.2,70.0 491.4,72.7 497.5,75.4 503.5,78.1 509.6,80.8 515.5,83.5 521.5,86.1 527.4,88.7 533.3,91.4 539.1,94.0 545.0,96.6 550.8,99.2 556.6,101.8 562.5,104.4 568.3,107.0 574.1,109.6 579.9,112.2 585.7,114.8 591.6,117.4 597.4,120.0 603.3,122.6 609.1,125.2 614.8,128.2 618.4,134.5 621.9,140.7 625.3,146.8 628.6,152.8 632.0,158.7 635.2,164.5 638.4,170.3 641.6,175.9 644.7,181.5 647.8,187.0 650.9,192.4 653.9,197.8 656.9,203.1" fill="none" stroke="black" stroke-width="2.5" stroke-linejoin="round"/>
<polyline points="352.8,507.2 354.5,508.8 356.2,510.4 357.9,511.9 359.7,513.4 361.6,514.9 363.4,516.3 365.3,517.7 367.2,519.0 369.2,520.3 371.2,521.5 373.2,522.7 375.2,523.8 377.3,524.9 379.4,525.9 381.5,526.8 383.6,527.8 385.8,528.6 388.0,529.4 390.2,530.2 392.4,530.9 394.7,531.6 396.9,532.2 399.2,532.7 401.5,533.2 403.8,533.6 406.1,534.0 408.4,534.3 410.7,534.5 413.0,534.7 415.3,534.9 417.7,535.0 420.0,535.0 422.3,535.0 424.7,534.9 427.0,534.7 429.3,534.5 431.6,534.3 433.9,534.0 436.2,533.6 438.5,533.2 440.8,532.7 443.1,532.2 445.3,531.6 447.6,530.9 449.8,530.2 452.0,529.4 454.2,528.6 456.4,527.8 458.5,526.8 460.6,525.9 462.7,524.9 464.8,523.8 466.8,522.7 468.8,521.5 470.8,520.3 472.8,519.0 474.7,517.7 476.6,516.3 478.4,514.9 480.3,513.4 482.1,511.9 483.8,510.4 485.5,508.8 487.2,507.2" fill="none" stroke="black" stroke-width="1"/>
<polygon points="483.6,376.4 420.0,312.7 356.4,376.4 420.0,440.0" fill="none" stroke="black" stroke-width="1.5"/>
<polygon points="483.64,371.36 488.64,376.36 483.64,381.36 478.64,376.36" fill="none" stroke="black" stroke-width="1.5"/>
<polygon points="420,307.72 425,312.72 420,317.72 415,312.72" fill="none" stroke="black" stroke-width="1.5"/>
<polygon points="356.36,371.36 361.36,376.36 356.36,381.36 351.36,376.36" fill="none" stroke="black" stroke-width="1.5"/>
<polygon points="420,445 415,440 417,435 423,435 425,440" fill="none" stroke="black" stroke-width="1.5"/>
<circle cx="420.0" cy="379.5" r="6" fill="none" stroke="black" stroke-width="1"/>
<text x="186.4" y="198.4" font-family="Arial,Helvetica,sans-serif" font-size="13" text-anchor="start" fill="black">336</text>
<text x="189.7" y="193.3" font-family="Arial,Helvetica,sans-serif" font-size="13" text-anchor="start" fill="black">337</text>
<text x="413.0" y="31.7" font-family="Arial,Helvetica,sans-serif" font-size="13" text-anchor="middle" fill="black">402</text>
<text x="649.9" y="193.8" font-family="Arial,Helvetica,sans-serif" font-size="13" text-anchor="end" fill="black">336</text>
<text x="652.9" y="199.1" font-family="Arial,Helvetica,sans-serif" font-size="13" text-anchor="end" fill="black">335</text>
<text x="420.0" y="22" font-family="Arial,Helvetica,sans-serif" font-size="15" font-weight="bold" text-anchor="middle" fill="black">Nationals Park</text><text x="420.0" y="38" font-family="Arial,Helvetica,sans-serif" font-size="13" text-anchor="middle" fill="black">Washington Nationals</text>
</svg>
