<?xml version="1.0" encoding="UTF-8"?>
<svg xmlns="http://www.w3.org/2000/svg" width="840" height="480" viewBox="0 0 840 480">
<rect x="0" y="0" width="840" height="480" fill="white"/>
<line x1="420.0" y1="440.0" x2="191.6" y2="211.6" stroke="black" stroke-width="1"/><line x1="420.0" y1="440.0" x2="647.0" y2="213.0" stroke="black" stroke-width="1"/>
<polyline points="202.2,222.2 205.2,217.6 208.2,213.0 211.4,208.3 214.5,203.5 217.5,198.7 220.6,193.8 223.9,188.9 227.0,183.9 230.3,178.8 233.6,173.8 236.9,168.6 240.3,163.2 243.7,157.9 247.2,152.4 250.8,146.9 254.4,141.3 258.1,135.6 261.9,129.7 265.6,123.7 269.6,117.5 274.9,114.1 280.7,111.9 286.6,109.7 292.4,107.6 298.1,105.3 304.0,103.1 309.8,100.9 315.6,98.6 321.4,96.5 327.3,94.1 333.2,91.9 339.1,89.6 345.0,87.3 350.9,85.1 357.0,82.7 363.0,80.3 369.1,78.0 375.2,75.4 381.4,73.1 387.7,70.6 394.1,68.2 400.4,65.7 406.8,63.1 413.4,60.5 420.0,57.9 426.7,55.3 433.6,52.6 440.4,49.7 447.0,52.5 453.5,57.0 459.8,61.3 466.0,65.6 472.0,69.8 478.0,74.0 483.8,78.0 489.7,82.0 495.3,85.9 500.8,89.8 506.4,93.6 511.8,97.3 517.1,101.0 522.5,104.6 527.8,108.3 533.0,111.9 538.1,115.4 543.2,118.9 548.2,122.4 553.4,125.8 558.4,129.2 563.4,132.6 568.4,136.0 573.2,139.3 578.2,142.7 583.0,146.0 587.9,149.2 592.8,152.4 597.6,155.7 602.4,159.0 605.9,164.3 608.9,170.2 611.9,175.9 614.8,181.6 617.6,187.1 620.4,192.6 623.2,197.9 625.9,203.2 628.5,208.5 631.1,213.6 633.8,218.6 636.4,223.6" fill="none" stroke="black" stroke-width="1" stroke-dasharray="4 4"/>
<polyline points="191.6,211.6 194.8,206.8 198.0,202.0 201.3,197.1 204.6,192.2 207.9,187.2 211.2,182.2 214.6,177.1 218.0,171.9 221.5,166.7 225.0,161.5 228.5,156.1 232.1,150.7 235.8,145.2 239.5,139.6 243.3,134.0 247.2,128.2 251.1,122.3 255.1,116.3 259.1,110.2 263.3,103.9 268.8,100.4 274.9,98.1 280.9,95.8 287.0,93.5 293.0,91.2 299.1,88.9 305.2,86.6 311.2,84.3 317.3,82.0 323.4,79.6 329.6,77.3 335.7,75.0 341.9,72.6 348.1,70.3 354.4,67.9 360.7,65.5 367.0,63.1 373.4,60.6 379.9,58.2 386.4,55.7 393.0,53.2 399.6,50.7 406.3,48.1 413.1,45.5 420.0,42.9 427.0,40.3 434.1,37.6 441.2,34.8 448.1,37.6 454.8,42.0 461.4,46.4 467.8,50.7 474.1,55.0 480.3,59.1 486.4,63.2 492.5,67.3 498.4,71.2 504.2,75.2 510.0,79.0 515.7,82.8 521.3,86.6 526.9,90.3 532.4,94.0 537.9,97.7 543.3,101.3 548.6,104.9 553.9,108.5 559.2,112.0 564.5,115.5 569.7,119.0 574.9,122.5 580.0,125.9 585.2,129.4 590.3,132.8 595.4,136.2 600.5,139.6 605.6,143.0 610.6,146.4 614.3,151.9 617.5,157.9 620.7,163.8 623.8,169.6 626.8,175.3 629.8,180.9 632.8,186.4 635.7,191.9 638.6,197.3 641.4,202.6 644.2,207.8 647.0,213.0" fill="none" stroke="black" stroke-width="2.5" stroke-linejoin="round"/>
<polyline points="352.8,507.2 354.5,508.8 356.2,510.4 357.9,511.9 359.7,513.4 361.6,514.9 363.4,516.3 365.3,517.7 367.2,519.0 369.2,520.3 371.2,521.5 373.2,522.7 375.2,523.8 377.3,524.9 379.4,525.9 381.5,526.8 383.6,527.8 385.8,528.6 388.0,529.4 390.2,530.2 392.4,530.9 394.7,531.6 396.9,532.2 399.2,532.7 401.5,533.2 403.8,533.6 406.1,534.0 408.4,534.3 410.7,534.5 413.0,534.7 415.3,534.9 417.7,535.0 420.0,535.0 422.3,535.0 424.7,534.9 427.0,534.7 429.3,534.5 431.6,534.3 433.9,534.0 436.2,533.6 438.5,533.2 440.8,532.7 443.1,532.2 445.3,531.6 447.6,530.9 449.8,530.2 452.0,529.4 454.2,528.6 456.4,527.8 458.5,526.8 460.6,525.9 462.7,524.9 464.8,523.8 466.8,522.7 468.8,521.5 470.8,520.3 472.8,519.0 474.7,517.7 476.6,516.3 478.4,514.9 480.3,513.4 482.1,511.9 483.8,510.4 485.5,508.8 487.2,507.2" fill="none" stroke="black" stroke-width="1"/>
<polygon points="483.6,376.4 420.0,312.7 356.4,376.4 420.0,440.0" fill="none" stroke="black" stroke-width="1.5"/>
<polygon points="483.64,371.36 488.64,376.36 483.64,381.36 478.64,376.36" fill="none" stroke="black" stroke-width="1.5"/>
<polygon points="420,307.72 425,312.72 420,317.72 415,312.72" fill="none" stroke="black" stroke-width="1.5"/>
<polygon points="356.36,371.36 361.36,376.36 356.36,381.36 351.36,376.36" fill="none" stroke="black" stroke-width="1.5"/>
<polygon points="420,445 415,440 417,435 423,435 425,440" fill="none" stroke="black" stroke-width="1.5"/>
<circle cx="420.0" cy="379.5" r="6" fill="none" stroke="black" stroke-width="1"/>
<text x="195.6" y="207.6" font-family="Arial,Helvetica,sans-serif" font-size="13" text-anchor="start" fill="black">323</text>
<text x="198.8" y="202.8" font-family="Arial,Helvetica,sans-serif" font-size="13" text-anchor="start" fill="black">324</text>
<text x="441.2" y="28.8" font-family="Arial,Helvetica,sans-serif" font-size="13" text-anchor="middle" fill="black">405</text>
<text x="640.2" y="203.8" font-family="Arial,Helvetica,sans-serif" font-size="13" text-anchor="end" fill="black">322</text>
<text x="643.0" y="209.0" font-family="Arial,Helvetica,sans-serif" font-size="13" text-anchor="end" fill="black">321</text>
<text x="420.0" y="22" font-family="Arial,Helvetica,sans-serif" font-size="15" font-weight="bold" text-anchor="middle" fill="black">Progressive Field</text><text x="420.0" y="38" font-family="Arial,Helvetica,sans-serif" font-size="13" text-anchor="middle" fill="black">Cleveland Guardians</text>
</svg>
